<svg xmlns="http://www.w3.org/2000/svg" width="60" height="60" viewBox="0 0 60 60">
  <g id="icons_Canceled" data-name="icons Canceled" transform="translate(8.398 5)">
    <rect id="Rectangle_773" data-name="Rectangle 773" width="60" height="60" rx="10" transform="translate(-8.398 -5)" fill="#ffe4cc"/>
    <g id="Approved" transform="translate(-146.815 11.4)">
      <g id="Group_1206" data-name="Group 1206" transform="translate(156.26 14.51)">
        <rect id="Rectangle_759" data-name="Rectangle 759" width="7.334" height="0.745" fill="#ff7903"/>
        <rect id="Rectangle_765" data-name="Rectangle 765" width="21.024" height="0.744" transform="translate(0 6.409)" fill="#ff7903"/>
        <rect id="Rectangle_770" data-name="Rectangle 770" width="21.024" height="0.744" transform="translate(0 3.422)" fill="#ff7903"/>
        <rect id="Rectangle_766" data-name="Rectangle 766" width="21.024" height="0.744" transform="translate(0 9.313)" fill="#ff7903"/>
        <rect id="Rectangle_767" data-name="Rectangle 767" width="4.951" height="0.744" transform="translate(8.191 12.216)" fill="#ff7903"/>
      </g>
      <path id="Path_1077" data-name="Path 1077" d="M16.417,4H5.2A3.2,3.2,0,0,0,2,7.2v22.42a3.2,3.2,0,0,0,3.2,3.2H27.631a3.2,3.2,0,0,0,3.2-3.2V18.413" transform="translate(150.417 -3.548)" fill="none" stroke="#ff7903" stroke-linecap="round" stroke-linejoin="round" stroke-width="1"/>
      <g id="x-circle" transform="translate(168.781 -5.633)">
        <circle id="Ellipse_60" data-name="Ellipse 60" cx="7.318" cy="7.318" r="7.318" transform="translate(2 2.964)" fill="none" stroke="#ff7903" stroke-linecap="round" stroke-linejoin="round" stroke-width="1"/>
        <line id="Line_85" data-name="Line 85" y2="6" transform="translate(10 6.233)" fill="none" stroke="#ff7903" stroke-linecap="round" stroke-linejoin="round" stroke-width="1"/>
        <line id="Line_86" data-name="Line 86" x2="0.015" transform="translate(10 14.233)" fill="none" stroke="#ff7903" stroke-linecap="round" stroke-linejoin="round" stroke-width="1"/>
      </g>
    </g>
  </g>
</svg>
