<svg xmlns="http://www.w3.org/2000/svg" width="60" height="60" viewBox="0 0 60 60">
  <g id="icons_-_Approved" data-name="icons - Approved" transform="translate(8.398 5)">
    <rect id="Rectangle_773" data-name="Rectangle 773" width="60" height="60" rx="10" transform="translate(-8.398 -5)" fill="#d6f4e7"/>
    <g id="Approved" transform="translate(-146.815 11.4)">
      <g id="Group_1206" data-name="Group 1206" transform="translate(156.26 14.51)">
        <rect id="Rectangle_759" data-name="Rectangle 759" width="7.334" height="0.745" fill="#33c988"/>
        <rect id="Rectangle_765" data-name="Rectangle 765" width="21.024" height="0.744" transform="translate(0 6.409)" fill="#33c988"/>
        <rect id="Rectangle_770" data-name="Rectangle 770" width="21.024" height="0.744" transform="translate(0 3.422)" fill="#33c988"/>
        <rect id="Rectangle_766" data-name="Rectangle 766" width="21.024" height="0.744" transform="translate(0 9.313)" fill="#33c988"/>
        <rect id="Rectangle_767" data-name="Rectangle 767" width="4.951" height="0.744" transform="translate(8.191 12.216)" fill="#33c988"/>
      </g>
      <path id="Path_1077" data-name="Path 1077" d="M16.417,4H5.2A3.2,3.2,0,0,0,2,7.2v22.42a3.2,3.2,0,0,0,3.2,3.2H27.631a3.2,3.2,0,0,0,3.2-3.2V18.413" transform="translate(150.417 -3.548)" fill="none" stroke="#33c988" stroke-linecap="round" stroke-linejoin="round" stroke-width="1"/>
      <g id="check-circle" transform="translate(170.553 -2.4)">
        <path id="Path_1082" data-name="Path 1082" d="M15.864,8.292V8.93a6.932,6.932,0,1,1-4.111-6.336" transform="translate(-2 -1.994)" fill="none" stroke="#33c988" stroke-linecap="round" stroke-linejoin="round" stroke-width="1"/>
        <path id="Path_1083" data-name="Path 1083" d="M18.012,4,11.08,10.939,9,8.859" transform="translate(-4.148 -2.609)" fill="none" stroke="#33c988" stroke-linecap="round" stroke-linejoin="round" stroke-width="1"/>
      </g>
    </g>
  </g>
</svg>
