<svg xmlns="http://www.w3.org/2000/svg" width="21.5" height="18.809" viewBox="0 0 21.5 18.809"><g transform="translate(-3.25 -25.634)"><g transform="translate(4 26.384)"><path d="M13.877,4,10.126,7.756,9,6.63" transform="translate(-3.943 0.671)" fill="none" stroke="#fff" stroke-linecap="round" stroke-linejoin="round" stroke-width="1"/><g transform="translate(0 0)"><path d="M2,0H12a2,2,0,0,1,2,2V12a0,0,0,0,1,0,0H0a0,0,0,0,1,0,0V2A2,2,0,0,1,2,0Z" fill="none" stroke="#fff" stroke-linecap="round" stroke-linejoin="round" stroke-width="1.5"/><path d="M16,8h3.685l2.764,2.764V15.37H16Z" transform="translate(-2.449 -3.587)" fill="none" stroke="#fff" stroke-linecap="round" stroke-linejoin="round" stroke-width="1.5"/><circle cx="2.581" cy="2.581" r="2.581" transform="translate(0.645 12.148)" fill="none" stroke="#fff" stroke-linecap="round" stroke-linejoin="round" stroke-width="1.5"/><circle cx="2.581" cy="2.581" r="2.581" transform="translate(12.636 12.148)" fill="none" stroke="#fff" stroke-linecap="round" stroke-linejoin="round" stroke-width="1.5"/></g></g></g></svg>