<svg xmlns="http://www.w3.org/2000/svg" width="21.5" height="18.029" viewBox="0 0 21.5 18.029"><g transform="translate(-3.25 -28.061)"><g transform="translate(4 28.811)"><g transform="translate(0 0)"><path d="M3,0h8a3,3,0,0,1,3,3v8a0,0,0,0,1,0,0H0a0,0,0,0,1,0,0V3A3,3,0,0,1,3,0Z" fill="none" stroke="#fff" stroke-linecap="round" stroke-linejoin="round" stroke-width="1.5"/><path d="M16,8h3.529l2.647,2.647v4.411H16Z" transform="translate(-2.176 -4.244)" fill="none" stroke="#fff" stroke-linecap="round" stroke-linejoin="round" stroke-width="1.5"/><circle cx="2.471" cy="2.471" r="2.471" transform="translate(0.618 11.586)" fill="none" stroke="#fff" stroke-linecap="round" stroke-linejoin="round" stroke-width="1.5"/><circle cx="2.471" cy="2.471" r="2.471" transform="translate(12.948 11.586)" fill="none" stroke="#fff" stroke-linecap="round" stroke-linejoin="round" stroke-width="1.5"/></g><path d="M12,6V9.946l2.63,1.315" transform="translate(-5.595 -3.911)" fill="none" stroke="#fff" stroke-linecap="round" stroke-linejoin="round" stroke-width="1"/></g></g></svg>