<svg xmlns="http://www.w3.org/2000/svg" width="18" height="12" viewBox="0 0 18 12">
  <path id="Icon_awesome-eye" data-name="Icon awesome-eye" d="M17.891,7.294A10.023,10.023,0,0,0,9,1.75,10.025,10.025,0,0,0,.109,7.294a1.011,1.011,0,0,0,0,.912A10.023,10.023,0,0,0,9,13.75a10.025,10.025,0,0,0,8.891-5.544,1.011,1.011,0,0,0,0-.912ZM9,12.25a4.5,4.5,0,1,1,4.5-4.5A4.5,4.5,0,0,1,9,12.25Zm0-7.5a2.978,2.978,0,0,0-.791.118A1.5,1.5,0,0,1,6.118,6.959,2.993,2.993,0,1,0,9,4.75Z" transform="translate(0 -1.75)" fill="#0083c2"/>
</svg>
