<svg xmlns="http://www.w3.org/2000/svg" width="20" height="17.774" viewBox="0 0 20 17.774">
  <path id="edit-solid" d="M13.979,2.985l3.132,3.132a.34.34,0,0,1,0,.479L9.528,14.18l-3.222.358a.675.675,0,0,1-.747-.747l.358-3.222L13.5,2.985a.34.34,0,0,1,.479,0Zm5.625-.8L17.91.5a1.358,1.358,0,0,0-1.917,0L14.764,1.725a.34.34,0,0,0,0,.479L17.9,5.336a.339.339,0,0,0,.479,0L19.6,4.107A1.358,1.358,0,0,0,19.6,2.19Zm-6.271,9.927v3.535H2.222V4.541H10.2a.427.427,0,0,0,.3-.122l1.389-1.389a.417.417,0,0,0-.3-.712H1.667A1.667,1.667,0,0,0,0,3.985V16.208a1.667,1.667,0,0,0,1.667,1.667H13.889a1.667,1.667,0,0,0,1.667-1.667V10.728a.417.417,0,0,0-.712-.3l-1.389,1.389A.427.427,0,0,0,13.333,12.117Z" transform="translate(0 -0.1)" fill="#0083c2"/>
</svg>
