<svg xmlns="http://www.w3.org/2000/svg" width="14.884" height="14.884" viewBox="0 0 14.884 14.884">
  <path id="Icon_metro-flow-tree" data-name="Icon metro-flow-tree" d="M16.106,12.906v-1.84A2.771,2.771,0,0,0,13.335,8.3H11.752a1.188,1.188,0,0,1-1.188-1.188V5.268a1.9,1.9,0,1,0-1.583,0v1.84A1.188,1.188,0,0,1,7.794,8.3H6.21a2.771,2.771,0,0,0-2.771,2.771v1.84a1.9,1.9,0,1,0,1.583,0v-1.84A1.188,1.188,0,0,1,6.21,9.879H7.794A2.742,2.742,0,0,0,8.981,9.6v3.3a1.9,1.9,0,1,0,1.583,0V9.6a2.742,2.742,0,0,0,1.188.277h1.583a1.188,1.188,0,0,1,1.188,1.188v1.84a1.9,1.9,0,1,0,1.583,0ZM9.773,2.449a1.1,1.1,0,1,1-1.1,1.1,1.1,1.1,0,0,1,1.1-1.1ZM4.231,15.726a1.1,1.1,0,1,1,1.1-1.1,1.1,1.1,0,0,1-1.1,1.1Zm5.542,0a1.1,1.1,0,1,1,1.1-1.1,1.1,1.1,0,0,1-1.1,1.1Zm5.542,0a1.1,1.1,0,1,1,1.1-1.1,1.1,1.1,0,0,1-1.1,1.1Z" transform="translate(-2.331 -1.645)" fill="#0083c2"/>
</svg>
