<svg xmlns="http://www.w3.org/2000/svg" width="14.749" height="13.274" viewBox="0 0 14.749 13.274">
  <g id="print-pdf" transform="translate(-1.475 -2.212)">
    <path id="Path_1130" data-name="Path 1130" d="M14.537,6.687H13.8V3H4.95V6.687H4.212A2.209,2.209,0,0,0,2,8.9v4.425H4.95v2.95H13.8v-2.95h2.95V8.9A2.209,2.209,0,0,0,14.537,6.687ZM6.425,4.475h5.9V6.687h-5.9Zm5.9,10.325h-5.9V11.85h5.9ZM13.8,11.85V10.375H4.95V11.85H3.475V8.9a.74.74,0,0,1,.737-.737H14.537a.74.74,0,0,1,.737.737v2.95Z" transform="translate(-0.525 -0.788)" fill="#0083c2"/>
    <circle id="Ellipse_71" data-name="Ellipse 71" cx="0.737" cy="0.737" r="0.737" transform="translate(12.537 7.743)" fill="#0083c2"/>
  </g>
</svg>
