<svg id="print-standard-pdf" xmlns="http://www.w3.org/2000/svg" width="15.699" height="15.699" viewBox="0 0 15.699 15.699">
  <path id="Path_1127" data-name="Path 1127" d="M0,0H15.7V15.7H0Z" fill="none"/>
  <path id="Path_1128" data-name="Path 1128" d="M13.774,2H5.925A1.312,1.312,0,0,0,4.617,3.308v7.85a1.312,1.312,0,0,0,1.308,1.308h7.85a1.312,1.312,0,0,0,1.308-1.308V3.308A1.312,1.312,0,0,0,13.774,2Zm0,9.158H5.925V3.308h7.85ZM3.308,4.617H2v9.158a1.312,1.312,0,0,0,1.308,1.308h9.158V13.774H3.308Zm7.85,3.925V6.579a.656.656,0,0,0-.654-.654H9.2V9.2H10.5A.656.656,0,0,0,11.158,8.541ZM9.85,6.579H10.5V8.541H9.85Zm2.617,1.308h.654V7.233h-.654V6.579h.654V5.925H11.812V9.2h.654Zm-5.233,0h.654a.656.656,0,0,0,.654-.654V6.579a.656.656,0,0,0-.654-.654H6.579V9.2h.654Zm0-1.308h.654v.654H7.233Z" transform="translate(-0.692 -0.692)" fill="#0083c2"/>
</svg>
